<svg class="icon" viewBox="0 0 1024 1024" xmlns="http://www.w3.org/2000/svg" width="200" height="200"><path d="M562.688 78.848H195.072c-22.016 0-39.936 17.408-39.936 38.912v770.048c0 21.504 17.92 38.912 39.936 38.912h637.44c22.016 0 39.936-17.408 39.936-38.912V387.584l-192 .512h-.512c-33.792 0-66.56-14.336-89.088-39.424-20.48-23.04-30.72-53.248-27.648-83.968l-.512-185.856zm80.896 46.592l.512 143.36v2.56c-1.024 8.704 1.536 16.896 7.168 23.04 7.168 7.68 17.408 12.288 29.184 12.288l145.92-.512L643.584 125.44zm188.928 880.128h-637.44c-65.024 0-118.272-52.736-118.272-117.76V117.76C76.8 52.736 130.048 0 195.072 0h433.664l322.048 319.488V888.32c0 64.512-52.736 117.248-118.272 117.248z"/></svg>
