<svg class="icon" viewBox="0 0 1024 1024" xmlns="http://www.w3.org/2000/svg" width="200" height="200"><path d="M77.035 139.173h869.93c16.57 0 31.069-14.499 31.069-31.069s-14.5-31.069-31.07-31.069H77.036c-16.57 0-31.069 14.499-31.069 31.07s14.5 31.068 31.07 31.068zm869.93 207.126H77.035c-16.57 0-31.069 14.499-31.069 31.069s14.5 31.069 31.07 31.069h869.929c16.57 0 31.069-14.499 31.069-31.069s-14.5-31.069-31.07-31.069zm-559.24 269.264H77.034c-16.57 0-31.069 14.499-31.069 31.069s14.5 31.069 31.07 31.069h310.688c16.57 0 31.07-14.499 31.07-31.069s-14.5-31.069-31.07-31.069zm0 269.264H77.034c-16.57 0-31.069 14.499-31.069 31.069s14.5 31.069 31.07 31.069h310.688c16.57 0 31.07-14.499 31.07-31.07s-14.5-31.068-31.07-31.068zm468.104-72.494c24.855-31.069 39.354-70.423 39.354-111.848 0-97.35-78.708-178.129-178.128-178.129-97.35 0-178.129 78.708-178.129 178.129 0 97.35 78.708 178.128 178.129 178.128 33.14 0 64.209-8.285 89.064-24.855l86.993 86.993c6.214 6.214 14.499 8.285 22.784 8.285s16.57-2.071 22.784-8.285c12.427-12.427 12.427-31.069 0-43.496l-82.85-84.922zM603.135 700.485c0-64.21 51.782-115.99 115.991-115.99 64.21 0 115.99 51.78 115.99 115.99 0 64.209-51.78 115.99-115.99 115.99-64.209-2.07-115.99-53.852-115.99-115.99z"/></svg>
